<mxfile host="app.diagrams.net" modified="2021-07-25T19:30:48.146Z" agent="5.0 (Windows NT 10.0; Win64; x64) AppleWebKit/537.36 (KHTML, like Gecko) Chrome/92.0.4515.107 Safari/537.36" etag="pCH9zyvQ3pIY5tZW2VwR" version="14.9.2" type="github">
  <diagram id="jmHZJPAKmWra3bVBh0cq" name="Page-1">
    <mxGraphModel dx="716" dy="359" grid="1" gridSize="10" guides="1" tooltips="1" connect="1" arrows="1" fold="1" page="1" pageScale="1" pageWidth="827" pageHeight="1169" math="0" shadow="0">
      <root>
        <mxCell id="0" />
        <mxCell id="1" parent="0" />
        <mxCell id="Of2l3aPvCOEOkEXACFMR-94" value="" style="ellipse;whiteSpace=wrap;html=1;" vertex="1" parent="1">
          <mxGeometry x="170" y="170" width="120" height="80" as="geometry" />
        </mxCell>
        <mxCell id="Of2l3aPvCOEOkEXACFMR-95" value="The elevator is inactive" style="text;html=1;strokeColor=none;fillColor=none;align=center;verticalAlign=middle;whiteSpace=wrap;rounded=0;" vertex="1" parent="1">
          <mxGeometry x="170" y="195" width="120" height="30" as="geometry" />
        </mxCell>
        <mxCell id="Of2l3aPvCOEOkEXACFMR-96" value="" style="endArrow=classic;html=1;" edge="1" parent="1" source="Of2l3aPvCOEOkEXACFMR-94" target="Of2l3aPvCOEOkEXACFMR-97">
          <mxGeometry width="50" height="50" relative="1" as="geometry">
            <mxPoint x="290" y="160" as="sourcePoint" />
            <mxPoint x="420" y="180" as="targetPoint" />
            <Array as="points">
              <mxPoint x="340" y="180" />
            </Array>
          </mxGeometry>
        </mxCell>
        <mxCell id="Of2l3aPvCOEOkEXACFMR-97" value="" style="ellipse;whiteSpace=wrap;html=1;" vertex="1" parent="1">
          <mxGeometry x="360" y="150" width="120" height="80" as="geometry" />
        </mxCell>
        <mxCell id="Of2l3aPvCOEOkEXACFMR-98" value="Starting the elevator motor, the elevator has arrived" style="text;html=1;strokeColor=none;fillColor=none;align=center;verticalAlign=middle;whiteSpace=wrap;rounded=0;" vertex="1" parent="1">
          <mxGeometry x="370" y="175" width="100" height="30" as="geometry" />
        </mxCell>
        <mxCell id="Of2l3aPvCOEOkEXACFMR-99" value="" style="endArrow=classic;html=1;exitX=1;exitY=0;exitDx=0;exitDy=0;" edge="1" parent="1" source="Of2l3aPvCOEOkEXACFMR-97">
          <mxGeometry width="50" height="50" relative="1" as="geometry">
            <mxPoint x="480" y="175" as="sourcePoint" />
            <mxPoint x="580" y="170" as="targetPoint" />
            <Array as="points">
              <mxPoint x="530" y="160" />
            </Array>
          </mxGeometry>
        </mxCell>
        <mxCell id="Of2l3aPvCOEOkEXACFMR-100" value="" style="ellipse;whiteSpace=wrap;html=1;" vertex="1" parent="1">
          <mxGeometry x="570" y="150" width="120" height="80" as="geometry" />
        </mxCell>
        <mxCell id="Of2l3aPvCOEOkEXACFMR-101" value="Processing request, doors are closing" style="text;html=1;strokeColor=none;fillColor=none;align=center;verticalAlign=middle;whiteSpace=wrap;rounded=0;" vertex="1" parent="1">
          <mxGeometry x="580" y="180" width="100" height="20" as="geometry" />
        </mxCell>
        <mxCell id="Of2l3aPvCOEOkEXACFMR-102" value="" style="endArrow=classic;html=1;exitX=1;exitY=0.5;exitDx=0;exitDy=0;" edge="1" parent="1" source="Of2l3aPvCOEOkEXACFMR-100">
          <mxGeometry width="50" height="50" relative="1" as="geometry">
            <mxPoint x="690" y="200" as="sourcePoint" />
            <mxPoint x="660" y="320" as="targetPoint" />
            <Array as="points">
              <mxPoint x="710" y="220" />
              <mxPoint x="710" y="240" />
              <mxPoint x="710" y="250" />
              <mxPoint x="690" y="290" />
            </Array>
          </mxGeometry>
        </mxCell>
        <mxCell id="Of2l3aPvCOEOkEXACFMR-103" value="" style="ellipse;whiteSpace=wrap;html=1;" vertex="1" parent="1">
          <mxGeometry x="540" y="290" width="120" height="80" as="geometry" />
        </mxCell>
        <mxCell id="Of2l3aPvCOEOkEXACFMR-104" value="The elevator stops, the doors open" style="text;html=1;strokeColor=none;fillColor=none;align=center;verticalAlign=middle;whiteSpace=wrap;rounded=0;" vertex="1" parent="1">
          <mxGeometry x="555" y="320" width="90" height="20" as="geometry" />
        </mxCell>
        <mxCell id="Of2l3aPvCOEOkEXACFMR-105" value="" style="endArrow=classic;html=1;" edge="1" parent="1" source="Of2l3aPvCOEOkEXACFMR-100">
          <mxGeometry width="50" height="50" relative="1" as="geometry">
            <mxPoint x="450" y="280" as="sourcePoint" />
            <mxPoint x="460" y="310" as="targetPoint" />
            <Array as="points">
              <mxPoint x="530" y="270" />
            </Array>
          </mxGeometry>
        </mxCell>
        <mxCell id="Of2l3aPvCOEOkEXACFMR-106" value="" style="ellipse;whiteSpace=wrap;html=1;" vertex="1" parent="1">
          <mxGeometry x="340" y="270" width="120" height="80" as="geometry" />
        </mxCell>
        <mxCell id="Of2l3aPvCOEOkEXACFMR-107" value="The doors opened" style="text;html=1;strokeColor=none;fillColor=none;align=center;verticalAlign=middle;whiteSpace=wrap;rounded=0;" vertex="1" parent="1">
          <mxGeometry x="370" y="300" width="60" height="20" as="geometry" />
        </mxCell>
        <mxCell id="Of2l3aPvCOEOkEXACFMR-108" value="Attach magnetic key" style="text;html=1;strokeColor=none;fillColor=none;align=center;verticalAlign=middle;whiteSpace=wrap;rounded=0;" vertex="1" parent="1">
          <mxGeometry x="270" y="155" width="90" height="20" as="geometry" />
        </mxCell>
        <mxCell id="Of2l3aPvCOEOkEXACFMR-109" value="Floor selection in the button bar" style="text;html=1;strokeColor=none;fillColor=none;align=center;verticalAlign=middle;whiteSpace=wrap;rounded=0;" vertex="1" parent="1">
          <mxGeometry x="470" y="135" width="110" height="20" as="geometry" />
        </mxCell>
        <mxCell id="Of2l3aPvCOEOkEXACFMR-110" value="Waiting to rise to the floor" style="text;html=1;strokeColor=none;fillColor=none;align=center;verticalAlign=middle;whiteSpace=wrap;rounded=0;" vertex="1" parent="1">
          <mxGeometry x="710" y="230" width="100" height="30" as="geometry" />
        </mxCell>
        <mxCell id="Of2l3aPvCOEOkEXACFMR-111" value="Cancel / Open doors" style="text;html=1;strokeColor=none;fillColor=none;align=center;verticalAlign=middle;whiteSpace=wrap;rounded=0;" vertex="1" parent="1">
          <mxGeometry x="465" y="240" width="90" height="20" as="geometry" />
        </mxCell>
      </root>
    </mxGraphModel>
  </diagram>
</mxfile>
